<?xml version="1.0" encoding="UTF-8"?>
<svg id="Ebene_1" xmlns="http://www.w3.org/2000/svg" version="1.1" viewBox="0 -12 271.8 408">
  <!-- Generator: Adobe Illustrator 30.2.1, SVG Export Plug-In . SVG Version: 2.1.1 Build 1)  -->
  <defs>
    <style>
      .st0 {
        fill: #fff;
      }

      .st1 {
        fill: #cd7f32;
      }
    </style>
  </defs>
  <g>
    <path class="st1" d="M194.63,234.21c-12.61,6.9-26.36,11.49-40.71,13.59l-14.16,34.19,27.56,66.53,23.09-34.39,40.64,7.98-36.42-87.92Z"/>
    <path class="st1" d="M135.9,249.13c-20.86,0-40.92-5.18-58.73-14.91l-36.42,87.92,40.64-7.98,23.09,34.38,41.34-99.81c-3.29.26-6.6.4-9.93.4Z"/>
    <path class="st1" d="M135.9,10.9c-63.82,0-115.55,51.74-115.55,115.56s51.74,115.55,115.55,115.55,115.56-51.74,115.56-115.55S199.72,10.9,135.9,10.9ZM201.21,191.76c-17.44,17.44-40.64,27.05-65.31,27.05s-47.86-9.61-65.31-27.05c-17.44-17.44-27.05-40.64-27.05-65.31s9.61-47.86,27.05-65.31c17.44-17.44,40.64-27.05,65.31-27.05s47.86,9.61,65.31,27.05c17.44,17.44,27.05,40.64,27.05,65.31s-9.61,47.86-27.05,65.31Z"/>
    <path class="st1" d="M221.14,126.46c0,47.08-38.16,85.24-85.24,85.24s-85.24-38.16-85.24-85.24,38.16-85.24,85.24-85.24,85.24,38.16,85.24,85.24Z"/>
  </g>
  <path class="st0" d="M107.25,76.42h25.21c25.94,0,33.44,9.34,33.44,31.48v36.15c0,22.38-7.5,31.97-33.2,31.97h-25.45v-99.59ZM132.7,160.77c9.96,0,10.57-4.3,10.57-13.28v-43.4c0-8.73-.98-12.3-10.7-12.3h-3.32v68.98h3.44Z"/>
  <g>
    <path class="st1" d="M52.58,378.05v-12.23h17.65c.62,0,1.33-.12,1.33-.94,0-.71-.71-.79-1.24-.79h-17.77l4.63-5.75h12.88c4.83,0,7.98,1.83,7.98,5.48,0,2.33-1.24,3.57-2.62,4.1,1.74.53,3.04,2.03,3.04,4.33,0,3.33-1.8,5.8-8.25,5.8h-17.62ZM59.42,370.51v1.89h10.81c.97,0,1.41-.27,1.41-.97,0-.62-.44-.91-1.53-.91h-10.7Z"/>
    <path class="st1" d="M100.9,378.05l-3.74-4.89h-8.9v4.89h-6.81v-10.31h17.83c1.62,0,2.5-.56,2.5-1.86s-.88-1.8-2.5-1.8h-17.8l4.45-5.75h12.49c4.45,0,10.43,1.33,10.43,7.16,0,2.95-1.74,5.54-4.8,6.28.53.35,1.86,1.53,4.54,4.66l1.41,1.62h-9.1Z"/>
    <path class="st1" d="M125.58,378.37c-9.78,0-14.7-3.15-14.7-10.2s4.92-10.17,14.7-10.17,14.73,3.12,14.73,10.17-4.95,10.2-14.73,10.2ZM125.58,363.76c-5.89,0-7.9.5-7.9,4.42s2,4.45,7.9,4.45,7.93-.56,7.93-4.45-2-4.42-7.93-4.42Z"/>
    <path class="st1" d="M149.53,367.47v10.58h-6.19v-15.91c0-2.95,1.74-4.15,3.71-4.15.83,0,1.62.21,2.71,1.15l11.17,9.81v-10.61h6.19v15.94c0,2.95-1.77,4.15-3.74,4.15-.85,0-1.62-.24-2.71-1.18l-11.14-9.78Z"/>
    <path class="st1" d="M173.18,378.05c-1.71,0-3.18-1-3.18-2.77,0-1,.56-1.97,1.5-2.68l6.81-5.27c3.42-2.65,4.24-3.18,4.63-3.39-.71.09-2,.15-6.63.15h-7.1l4.33-5.75h17.68c1.71,0,3.18,1,3.18,2.77,0,.97-.59,1.97-1.5,2.68l-6.69,5.24c-3.54,2.77-4.48,3.33-4.77,3.51.35-.09,2.45-.15,6.95-.15h7.04l-4.12,5.66h-18.12Z"/>
    <path class="st1" d="M197.54,378.05v-19.71h23.31l-4.42,5.75h-12.05v1.65h15.26l-3.8,4.8h-11.46v1.86h16.5l-4.36,5.66h-18.97Z"/>
  </g>
</svg>