<?xml version="1.0" encoding="UTF-8"?>
<svg id="Ebene_1" xmlns="http://www.w3.org/2000/svg" version="1.1" viewBox="0 -12 271.8 408">
  <!-- Generator: Adobe Illustrator 30.2.1, SVG Export Plug-In . SVG Version: 2.1.1 Build 1)  -->
  <defs>
    <style>
      .st0 {
        fill: #dc2626;
      }

      .st1 {
        fill: #fff;
      }
    </style>
  </defs>
  <g>
    <path class="st0" d="M194.63,234.21c-12.61,6.9-26.36,11.49-40.71,13.59l-14.16,34.19,27.56,66.53,23.09-34.39,40.64,7.98-36.42-87.92Z"/>
    <path class="st0" d="M135.9,249.13c-20.86,0-40.92-5.18-58.73-14.91l-36.42,87.92,40.64-7.98,23.09,34.38,41.34-99.81c-3.29.26-6.6.4-9.93.4Z"/>
    <path class="st0" d="M135.9,10.9c-63.82,0-115.55,51.74-115.55,115.56s51.74,115.55,115.55,115.55,115.56-51.74,115.56-115.55S199.72,10.9,135.9,10.9ZM201.21,191.76c-17.44,17.44-40.64,27.05-65.31,27.05s-47.86-9.61-65.31-27.05c-17.44-17.44-27.05-40.64-27.05-65.31s9.61-47.86,27.05-65.31c17.44-17.44,40.64-27.05,65.31-27.05s47.86,9.61,65.31,27.05c17.44,17.44,27.05,40.64,27.05,65.31s-9.61,47.86-27.05,65.31Z"/>
    <path class="st0" d="M221.14,126.46c0,47.08-38.16,85.24-85.24,85.24s-85.24-38.16-85.24-85.24,38.16-85.24,85.24-85.24,85.24,38.16,85.24,85.24Z"/>
  </g>
  <path class="st1" d="M115.8,76.42h44.75v15h-22.75v24.71h17.34v15.25h-17.34v29.76h22.99v14.88h-45v-99.59Z"/>
  <g>
    <path class="st0" d="M73.4,371.09v6.95h-6.84v-19.71h22.51l-4.39,5.75h-11.28v1.68h14.56l-4.15,5.33h-10.4Z"/>
    <path class="st0" d="M94.87,378.05l4.12-5.66h4.42c.94,0,2.06,0,2.68.06-.29-.32-.94-1.24-1.36-1.86l-3.3-4.8-8.81,12.26h-8.07l12.61-17.56c.94-1.33,2.27-2.5,4.39-2.5s3.39,1.09,4.36,2.5l12.26,17.56h-23.31Z"/>
    <path class="st0" d="M120.44,378.05v-19.71h6.81v19.71h-6.81Z"/>
    <path class="st0" d="M131.1,378.05v-19.71h6.81v14.05h14.97l-4.39,5.66h-17.38Z"/>
    <path class="st0" d="M154.93,378.05v-19.71h23.31l-4.42,5.75h-12.05v1.65h15.26l-3.8,4.8h-11.46v1.86h16.5l-4.36,5.66h-18.98Z"/>
    <path class="st0" d="M180.39,378.05v-12.29h6.84v6.63h6.6c3.09,0,5.3-1.15,5.3-4.39,0-2.68-2.33-3.92-5.3-3.92h-13.44l4.33-5.75h9.1c7.01,0,12.08,3.98,12.08,9.66s-5.13,10.05-12.08,10.05h-13.44Z"/>
  </g>
</svg>