<?xml version="1.0" encoding="UTF-8"?>
<svg id="Ebene_1" xmlns="http://www.w3.org/2000/svg" version="1.1" viewBox="0 -12 271.8 408">
  <!-- Generator: Adobe Illustrator 30.2.1, SVG Export Plug-In . SVG Version: 2.1.1 Build 1)  -->
  <defs>
    <style>
      .st0 {
        fill: #d3af37;
      }

      .st1 {
        fill: #fff;
      }
    </style>
  </defs>
  <g>
    <path class="st0" d="M194.63,234.21c-12.61,6.9-26.36,11.49-40.71,13.59l-14.16,34.19,27.56,66.53,23.09-34.39,40.64,7.98-36.42-87.92Z"/>
    <path class="st0" d="M135.9,249.13c-20.86,0-40.92-5.18-58.73-14.91l-36.42,87.92,40.64-7.98,23.09,34.38,41.34-99.81c-3.29.26-6.6.4-9.93.4Z"/>
    <path class="st0" d="M135.9,10.9c-63.82,0-115.55,51.74-115.55,115.56s51.74,115.55,115.55,115.55,115.56-51.74,115.56-115.55S199.72,10.9,135.9,10.9ZM201.21,191.76c-17.44,17.44-40.64,27.05-65.31,27.05s-47.86-9.61-65.31-27.05c-17.44-17.44-27.05-40.64-27.05-65.31s9.61-47.86,27.05-65.31c17.44-17.44,40.64-27.05,65.31-27.05s47.86,9.61,65.31,27.05c17.44,17.44,27.05,40.64,27.05,65.31s-9.61,47.86-27.05,65.31Z"/>
    <path class="st0" d="M221.14,126.46c0,47.08-38.16,85.24-85.24,85.24s-85.24-38.16-85.24-85.24,38.16-85.24,85.24-85.24,85.24,38.16,85.24,85.24Z"/>
  </g>
  <path class="st1" d="M123.42,76.42h25.08l18.57,99.59h-20.29l-3.32-21.03h-14.63l-3.44,21.03h-20.78l18.81-99.59ZM141.37,141.83l-5.29-38.85-5.29,38.85h10.57Z"/>
  <g>
    <path class="st0" d="M92.59,378.05c-6.92,0-12.02-4.33-12.02-10.05s5.1-9.66,12.02-9.66h14.47l-4.42,5.75h-10.05c-2.95,0-5.22,1.8-5.22,4.21s2.15,4.1,5.22,4.1h7.16v-2h-9.9l4.1-4.92h12.58v12.58h-13.94Z"/>
    <path class="st0" d="M124.05,378.37c-9.78,0-14.7-3.15-14.7-10.2s4.92-10.17,14.7-10.17,14.73,3.12,14.73,10.17-4.95,10.2-14.73,10.2ZM124.05,363.76c-5.89,0-7.9.5-7.9,4.42s2,4.45,7.9,4.45,7.93-.56,7.93-4.45-2-4.42-7.93-4.42Z"/>
    <path class="st0" d="M141.9,378.05v-19.71h6.81v14.05h14.97l-4.39,5.66h-17.38Z"/>
    <path class="st0" d="M165.73,378.05v-12.29h6.84v6.63h6.6c3.09,0,5.3-1.15,5.3-4.39,0-2.68-2.33-3.92-5.3-3.92h-13.44l4.33-5.75h9.1c7.01,0,12.08,3.98,12.08,9.66s-5.13,10.05-12.08,10.05h-13.44Z"/>
  </g>
</svg>