<?xml version="1.0" encoding="UTF-8"?>
<svg id="Ebene_1" xmlns="http://www.w3.org/2000/svg" version="1.1" viewBox="0 -12 271.8 408">
  <!-- Generator: Adobe Illustrator 30.2.1, SVG Export Plug-In . SVG Version: 2.1.1 Build 1)  -->
  <defs>
    <style>
      .st0 {
        fill: #fff;
      }

      .st1 {
        fill: #0f766e;
      }
    </style>
  </defs>
  <g>
    <path class="st1" d="M194.63,234.21c-12.61,6.9-26.36,11.49-40.71,13.59l-14.16,34.19,27.56,66.53,23.09-34.39,40.64,7.98-36.42-87.92Z"/>
    <path class="st1" d="M135.9,249.13c-20.86,0-40.92-5.18-58.73-14.91l-36.42,87.92,40.64-7.98,23.09,34.38,41.34-99.81c-3.29.26-6.6.4-9.93.4Z"/>
    <path class="st1" d="M135.9,10.9c-63.82,0-115.55,51.74-115.55,115.56s51.74,115.55,115.55,115.55,115.56-51.74,115.56-115.55S199.72,10.9,135.9,10.9ZM201.21,191.76c-17.44,17.44-40.64,27.05-65.31,27.05s-47.86-9.61-65.31-27.05c-17.44-17.44-27.05-40.64-27.05-65.31s9.61-47.86,27.05-65.31c17.44-17.44,40.64-27.05,65.31-27.05s47.86,9.61,65.31,27.05c17.44,17.44,27.05,40.64,27.05,65.31s-9.61,47.86-27.05,65.31Z"/>
    <path class="st1" d="M221.14,126.46c0,47.08-38.16,85.24-85.24,85.24s-85.24-38.16-85.24-85.24,38.16-85.24,85.24-85.24,85.24,38.16,85.24,85.24Z"/>
  </g>
  <path class="st0" d="M123.42,76.42h25.08l18.57,99.59h-20.29l-3.32-21.03h-14.63l-3.44,21.03h-20.78l18.81-99.59ZM141.37,141.83l-5.29-38.85-5.29,38.85h10.57Z"/>
  <g>
    <path class="st1" d="M38.97,373.33v4.71h-6.78v-10.31h17.71c1.41,0,2.03-.88,2.03-1.89,0-.94-.68-1.77-2.03-1.77h-17.68l4.51-5.75h12.17c6.28,0,9.87,3.12,9.87,7.54s-3.59,7.45-9.9,7.45h-9.9Z"/>
    <path class="st1" d="M61.92,378.05v-19.71h6.81v14.05h14.97l-4.39,5.66h-17.38Z"/>
    <path class="st1" d="M93.41,378.05l4.12-5.66h4.42c.94,0,2.06,0,2.68.06-.29-.32-.94-1.24-1.36-1.86l-3.3-4.8-8.81,12.26h-8.07l12.61-17.56c.94-1.33,2.27-2.5,4.39-2.5s3.39,1.09,4.36,2.5l12.26,17.56h-23.31Z"/>
    <path class="st1" d="M119.57,378.05v-13.97h-8.96l4.42-5.75h22.27l-4.42,5.75h-6.48v13.97h-6.84Z"/>
    <path class="st1" d="M139.28,378.05v-19.71h6.81v19.71h-6.81Z"/>
    <path class="st1" d="M156.04,367.47v10.58h-6.19v-15.91c0-2.95,1.74-4.15,3.71-4.15.83,0,1.62.21,2.71,1.15l11.17,9.81v-10.61h6.19v15.94c0,2.95-1.77,4.15-3.74,4.15-.85,0-1.62-.24-2.71-1.18l-11.14-9.78Z"/>
    <path class="st1" d="M196.46,358.34h6.87v11.11c0,5.95-4.15,8.93-12.52,8.93-9.63,0-13.79-2.98-13.79-8.93v-11.11h6.81v11.11c0,2.56.85,3.27,6.98,3.27,4.15,0,5.66-.91,5.66-3.27v-11.11Z"/>
    <path class="st1" d="M234.22,378.05l-2.03-7.78c-.32-1.33-.56-2.74-.56-3.51-.59,1.21-1.21,2.39-2.8,5.13l-2.36,4.04c-1.21,2.15-2.21,2.47-3.86,2.47s-2.71-.29-3.95-2.47l-2.62-4.71c-1.5-2.65-1.97-3.54-2.42-4.45-.15.94-.38,2.12-.71,3.36l-1.97,7.93h-6.69l4.77-17c.59-2.06,2.09-3.06,3.83-3.06s2.89.91,3.71,2.33l3.24,5.42c1.83,3.04,2.45,4.1,2.92,5.07.47-.97,1.09-2,2.89-5.04l3.24-5.45c.8-1.36,1.94-2.33,3.74-2.33,1.68,0,3.21,1,3.8,3.06,1.56,5.66,3.06,11.34,4.63,17h-6.81Z"/>
  </g>
</svg>