<?xml version="1.0" encoding="UTF-8"?>
<svg id="Ebene_1" xmlns="http://www.w3.org/2000/svg" version="1.1" viewBox="0 -12 271.8 408">
  <!-- Generator: Adobe Illustrator 30.2.1, SVG Export Plug-In . SVG Version: 2.1.1 Build 1)  -->
  <defs>
    <style>
      .st0 {
        fill: #fff;
      }

      .st1 {
        fill: silver;
      }
    </style>
  </defs>
  <g>
    <path class="st1" d="M194.63,234.21c-12.61,6.9-26.36,11.49-40.71,13.59l-14.16,34.19,27.56,66.53,23.09-34.39,40.64,7.98-36.42-87.92Z"/>
    <path class="st1" d="M135.9,249.13c-20.86,0-40.92-5.18-58.73-14.91l-36.42,87.92,40.64-7.98,23.09,34.38,41.34-99.81c-3.29.26-6.6.4-9.93.4Z"/>
    <path class="st1" d="M135.9,10.9c-63.82,0-115.55,51.74-115.55,115.56s51.74,115.55,115.55,115.55,115.56-51.74,115.56-115.55S199.72,10.9,135.9,10.9ZM201.21,191.76c-17.44,17.44-40.64,27.05-65.31,27.05s-47.86-9.61-65.31-27.05c-17.44-17.44-27.05-40.64-27.05-65.31s9.61-47.86,27.05-65.31c17.44-17.44,40.64-27.05,65.31-27.05s47.86,9.61,65.31,27.05c17.44,17.44,27.05,40.64,27.05,65.31s-9.61,47.86-27.05,65.31Z"/>
    <path class="st1" d="M221.14,126.46c0,47.08-38.16,85.24-85.24,85.24s-85.24-38.16-85.24-85.24,38.16-85.24,85.24-85.24,85.24,38.16,85.24,85.24Z"/>
  </g>
  <path class="st0" d="M108.05,144.29v-35.9c0-20.66,7.13-33.32,29.88-33.32s28.65,11.8,28.65,28.77v8.61h-21.52v-9.96c0-5.78-.12-11.93-7.13-11.93s-7.62,6.27-7.62,12.3v46.85c0,6.76,1.11,12.17,7.62,12.17,6.89,0,7.13-6.15,7.13-12.17v-10.45h21.52v8.61c0,16.97-6.39,29.63-28.65,29.63s-29.88-13.03-29.88-33.2Z"/>
  <g>
    <path class="st1" d="M62.21,378.05l4.39-5.66h14.88c.88,0,1.38-.32,1.38-1.03s-.5-1.03-1.44-1.03h-11.14c-5.1,0-7.42-2.39-7.42-5.72,0-3.98,2.48-6.28,8.63-6.28h17.38l-4.39,5.75h-13.64c-.91,0-1.38.24-1.38.94s.47.97,1.38.97h11.2c4.77,0,7.4,1.86,7.4,5.45,0,4.07-1.94,6.6-8.04,6.6h-19.18Z"/>
    <path class="st1" d="M92.32,378.05v-19.71h6.81v19.71h-6.81Z"/>
    <path class="st1" d="M102.98,378.05v-19.71h6.81v14.05h14.97l-4.39,5.66h-17.38Z"/>
    <path class="st1" d="M141.25,375.93c-.91,1.3-2.27,2.47-4.39,2.47s-3.39-1.09-4.33-2.47l-12.29-17.59h8.37l8.37,12.26,8.81-12.26h8.07l-12.61,17.59Z"/>
    <path class="st1" d="M156.04,378.05v-19.71h23.31l-4.42,5.75h-12.05v1.65h15.26l-3.8,4.8h-11.46v1.86h16.5l-4.36,5.66h-18.98Z"/>
    <path class="st1" d="M200.85,378.05l-3.74-4.89h-8.9v4.89h-6.81v-10.31h17.83c1.62,0,2.5-.56,2.5-1.86s-.88-1.8-2.5-1.8h-17.8l4.45-5.75h12.49c4.45,0,10.43,1.33,10.43,7.16,0,2.95-1.74,5.54-4.8,6.28.53.35,1.86,1.53,4.54,4.66l1.41,1.62h-9.1Z"/>
  </g>
</svg>