<?xml version="1.0" encoding="UTF-8"?>
<svg id="references" xmlns="http://www.w3.org/2000/svg" version="1.1" viewBox="0 0 3772.7 2857.3">
  <!-- Generator: Adobe Illustrator 29.8.0, SVG Export Plug-In . SVG Version: 2.1.1 Build 160)  -->
  <defs>
    <style>
      .st0 {
        fill: #f8b221;
      }

      .st1 {
        fill: #4c84ad;
      }

      .st2 {
        fill: #fff;
      }

      .st3 {
        fill: #9ed9f1;
      }

      .st4 {
        fill: none;
        stroke: #fff;
        stroke-linecap: round;
        stroke-linejoin: round;
      }

      .st5 {
        fill: #3fc952;
      }
    </style>
  </defs>
  <rect class="st3" x="1114.6" y="266.3" width="1887.2" height="104.8" rx="32.7" ry="32.7"/>
  <path class="st2" d="M640.7,346.9c21.5,0,39-17.5,39-39s-17.5-39-39-39-39,17.5-39,39,17.5,39,39,39Z"/>
  <path class="st2" d="M3631.2,2710.2V552.9H161.2v2157.3c0,12.6,10.2,22.9,22.9,22.9h3424.2c12.6,0,22.9-10.3,22.9-22.9ZM2045.1,892.3c-11.7-9.8-13.3-27.2-3.6-39,9.8-11.7,27.2-13.4,39-3.6l207.3,172.5c6.3,5.3,10,13,10,21.3s-3.7,16-10,21.3l-207.3,172.5c-5.2,4.3-11.5,6.4-17.7,6.4s-15.8-3.4-21.3-10c-9.8-11.7-8.2-29.2,3.6-39l181.7-151.2-181.7-151.2ZM1770.6,1272.1l114.5-468.2c3.6-14.9,18.6-23.9,33.4-20.3,14.8,3.6,23.9,18.6,20.3,33.4l-114.5,468.2c-3.1,12.6-14.4,21.1-26.9,21.1s-4.4-.3-6.6-.8c-14.8-3.6-23.9-18.6-20.3-33.4ZM1436.3,1022.3l207.3-172.5c11.8-9.8,29.2-8.2,39,3.6,9.8,11.7,8.2,29.2-3.6,39l-181.7,151.2,181.7,151.2c11.7,9.8,13.3,27.2,3.6,39-5.5,6.6-13.3,10-21.3,10s-12.5-2.1-17.7-6.4l-207.3-172.5c-6.3-5.3-10-13-10-21.3s3.7-16,10-21.3ZM1305.8,1613.8h220.9v55.3h-220.9v-55.3ZM1717.4,1840.5h0v27.7h-410v-55.3h410v27.7h0ZM705.2,2143.4h0v-27.7h561.8v55.3h-561.8v-27.7h0ZM1231.6,1669.1h-535.3v-27.7h0v-27.7h535.3v55.3ZM505.5,1460.2h190.8v55.3h-190.8v-27.7h0v-27.7ZM696.3,2015.3h-190.8v-27.7h0v-27.7h190.8v55.3ZM696.3,1840.5h0v-27.7h535.3v55.3h-535.3v-27.7h0ZM1019,2361.5h-313.8v-27.7h0v-27.7h313.8v55.3ZM1349.7,2361.5h-249.7v-27.7h0v-27.7h249.7v55.3ZM1560.5,2171.1h-225.3v-27.7h0,0v-27.7h225.3v27.7h0v27.7ZM2021.1,2171.1h-393.2v-27.7h0v-27.7h393.2v27.7h0v27.7ZM1980.6,1840.5h0v27.7h-202.4v-55.3h202.4v27.7h0ZM2068.4,1669.1h-445.4v-27.7h0,0v-27.7h445.4v55.3ZM2392.7,2171.1h-318.5v-27.7h0,0v-27.7h318.5v27.7h0v27.7ZM3527.6,2532.1l-53.6,53.8c-10,10-23.2,15.5-37.3,15.5s-27.3-5.5-37.3-15.5l-349.8-351c-20.5-20.5-20.5-54,0-74.5l10.6-10.6-48.6-48.8c-74.5,53.8-165.7,85.5-264.2,85.5-202.6,0-374.6-134-432.6-318.3h-240.5v-27.7h0,0v-27.7h227c-4.8-26.4-7.4-53.5-7.4-81.3s1.6-42,4.4-62.5h-155.7v-55.3h166.8c51.9-193.9,228.5-337.1,438-337.1s453.5,204.1,453.5,454.9-59.3,256.9-153.1,340.3l45,45.1,10.5-10.5c19.9-19.9,54.6-20,74.6,0l349.8,350.9c20.5,20.5,20.5,54,0,74.5Z"/>
  <path class="st2" d="M889.8,346.9c21.5,0,39-17.5,39-39s-17.5-39-39-39-39,17.5-39,39,17.5,39,39,39Z"/>
  <path class="st2" d="M383.9,346.9c21.5,0,39-17.5,39-39s-17.5-39-39-39-39,17.5-39,39,17.5,39,39,39Z"/>
  <path class="st2" d="M3631.2,497.6V166.9c0-12.6-10.3-22.9-22.9-22.9H184c-12.6,0-22.9,10.3-22.9,22.9v330.6h3470ZM3335.7,309.3l-59.1-69.3c-4.2-5-.7-12.6,5.8-12.6h52c2.2,0,4.3,1,5.8,2.7l30,35.2c3,3.6,8.5,3.6,11.6,0l30-35.2c1.5-1.7,3.6-2.7,5.8-2.7h52c6.5,0,10,7.6,5.8,12.6l-59.1,69.3c-2.4,2.9-2.4,7.1,0,9.9l59.1,69.3c4.2,5,.7,12.6-5.8,12.6h-52c-2.2,0-4.3-1-5.8-2.7l-30-35.2c-3-3.6-8.5-3.6-11.6,0l-30.1,35.2c-1.4,1.7-3.5,2.6-5.7,2.7l-52.8.9c-6.6.1-10.2-7.6-5.9-12.6l59.9-70.3c2.4-2.9,2.4-7.1,0-9.9ZM1068.5,299.1c0-43.5,35.4-78.9,78.9-78.9h1821.7c43.5,0,78.9,35.4,78.9,78.9v39.3c0,43.5-35.4,78.9-78.9,78.9h-1821.7c-43.5,0-78.9-35.4-78.9-78.9v-39.3ZM889.8,213.6c52,0,94.4,42.3,94.4,94.4s-42.3,94.4-94.4,94.4-94.4-42.3-94.4-94.4,42.3-94.4,94.4-94.4ZM640.7,213.6c52,0,94.4,42.3,94.4,94.4s-42.3,94.4-94.4,94.4-94.4-42.3-94.4-94.4,42.3-94.4,94.4-94.4ZM383.9,213.6c52,0,94.4,42.3,94.4,94.4s-42.3,94.4-94.4,94.4-94.4-42.3-94.4-94.4,42.3-94.4,94.4-94.4Z"/>
  <path class="st4" d="M696.3,1641.5h0Z"/>
  <polygon class="st1" points="696.3 1641.5 696.3 1669.1 1231.6 1669.1 1231.6 1613.8 696.3 1613.8 696.3 1641.5"/>
  <rect class="st1" x="1305.8" y="1613.8" width="220.9" height="55.3"/>
  <path class="st4" d="M1623,1641.5h0,0Z"/>
  <polygon class="st1" points="1623 1641.5 1623 1669.1 2068.4 1669.1 2068.4 1613.8 1623 1613.8 1623 1641.5"/>
  <path class="st4" d="M696.3,1840.5h0Z"/>
  <path class="st1" d="M1056.1,1868.2h175.4v-55.3h-535.3v55.3h359.8ZM1056.1,1840.5h0,0Z"/>
  <path class="st4" d="M1056.1,1840.5h0,0Z"/>
  <path class="st4" d="M1717.4,1840.5h0Z"/>
  <polygon class="st1" points="1307.5 1812.9 1307.5 1868.2 1717.4 1868.2 1717.4 1840.5 1717.4 1812.9 1307.5 1812.9"/>
  <path class="st4" d="M1980.6,1840.5h0Z"/>
  <polygon class="st1" points="1778.2 1812.9 1778.2 1868.2 1980.6 1868.2 1980.6 1840.5 1980.6 1812.9 1778.2 1812.9"/>
  <path class="st4" d="M505.5,1987.7h0Z"/>
  <polygon class="st1" points="505.5 1987.7 505.5 2015.3 696.3 2015.3 696.3 1960 505.5 1960 505.5 1987.7"/>
  <path class="st4" d="M705.2,2143.4h0Z"/>
  <polygon class="st1" points="1267 2171.1 1267 2115.8 705.2 2115.8 705.2 2143.4 705.2 2171.1 1267 2171.1"/>
  <path class="st4" d="M1335.3,2143.4h0,0Z"/>
  <path class="st4" d="M1560.5,2143.4h0Z"/>
  <polygon class="st1" points="1335.3 2115.8 1335.3 2143.4 1335.3 2171.1 1560.5 2171.1 1560.5 2143.4 1560.5 2115.8 1335.3 2115.8"/>
  <path class="st4" d="M1627.9,2143.4h0Z"/>
  <path class="st4" d="M2021.1,2143.4h0Z"/>
  <polygon class="st1" points="1627.9 2115.8 1627.9 2143.4 1627.9 2171.1 2021.1 2171.1 2021.1 2143.4 2021.1 2115.8 1627.9 2115.8"/>
  <path class="st4" d="M505.5,1487.9h0Z"/>
  <polygon class="st1" points="696.3 1515.5 696.3 1460.2 505.5 1460.2 505.5 1487.9 505.5 1515.5 696.3 1515.5"/>
  <path class="st4" d="M2074.3,2143.4h0,0Z"/>
  <path class="st4" d="M2392.7,2143.4h0Z"/>
  <polygon class="st1" points="2074.3 2115.8 2074.3 2143.4 2074.3 2171.1 2392.7 2171.1 2392.7 2143.4 2392.7 2115.8 2074.3 2115.8"/>
  <path class="st4" d="M705.2,2333.8h0Z"/>
  <polygon class="st1" points="705.2 2333.8 705.2 2361.5 1019 2361.5 1019 2306.2 705.2 2306.2 705.2 2333.8"/>
  <path class="st4" d="M1100,2333.8h0Z"/>
  <polygon class="st1" points="1100 2333.8 1100 2361.5 1349.7 2361.5 1349.7 2306.2 1100 2306.2 1100 2333.8"/>
  <path class="st0" d="M2045.1,1194.8c-11.7,9.8-13.3,27.2-3.6,39,5.5,6.6,13.3,10,21.3,10s12.5-2.1,17.7-6.4l207.3-172.5c6.3-5.3,10-13,10-21.3s-3.7-16-10-21.3l-207.3-172.5c-11.8-9.8-29.2-8.2-39,3.6-9.8,11.7-8.2,29.2,3.6,39l181.7,151.2-181.7,151.2Z"/>
  <path class="st0" d="M1643.6,1237.3c5.2,4.3,11.5,6.4,17.7,6.4s15.8-3.4,21.3-10c9.8-11.7,8.2-29.2-3.6-39l-181.7-151.2,181.7-151.2c11.7-9.8,13.3-27.2,3.6-39-9.8-11.7-27.2-13.4-39-3.6l-207.3,172.5c-6.3,5.3-10,13-10,21.3s3.7,16,10,21.3l207.3,172.5Z"/>
  <path class="st0" d="M1790.9,1305.5c2.2.5,4.4.8,6.6.8,12.4,0,23.8-8.5,26.9-21.1l114.5-468.2c3.6-14.8-5.5-29.8-20.3-33.4-14.8-3.6-29.8,5.4-33.4,20.3l-114.5,468.2c-3.6,14.8,5.5,29.8,20.3,33.4Z"/>
  <path class="st4" d="M2074.2,1840.5h0,0Z"/>
  <path class="st1" d="M3275.7,389.5c-4.3,5-.6,12.7,5.9,12.6l52.8-.9c2.2,0,4.2-1,5.7-2.7l30.1-35.2c3-3.6,8.5-3.6,11.6,0l30,35.2c1.5,1.7,3.6,2.7,5.8,2.7h52c6.5,0,10-7.6,5.8-12.6l-59.1-69.3c-2.4-2.9-2.4-7.1,0-9.9l59.1-69.3c4.2-5,.7-12.6-5.8-12.6h-52c-2.2,0-4.3,1-5.8,2.7l-30,35.2c-3,3.6-8.5,3.6-11.6,0l-30-35.2c-1.4-1.7-3.6-2.7-5.8-2.7h-52c-6.5,0-10,7.6-5.8,12.6l59.1,69.3c2.4,2.9,2.4,7.1,0,9.9l-59.9,70.3Z"/>
  <path class="st1" d="M1147.3,417.2h1821.7c43.5,0,78.9-35.4,78.9-78.9v-39.3c0-43.5-35.4-78.9-78.9-78.9h-1821.7c-43.5,0-78.9,35.4-78.9,78.9v39.3c0,43.5,35.4,78.9,78.9,78.9ZM1114.6,299.1c0-18.1,14.7-32.7,32.7-32.7h1821.7c18,0,32.7,14.7,32.7,32.7v39.3c0,18.1-14.7,32.7-32.7,32.7h-1821.7c-18,0-32.7-14.7-32.7-32.7v-39.3Z"/>
  <path class="st1" d="M383.9,402.3c52,0,94.4-42.3,94.4-94.4s-42.3-94.4-94.4-94.4-94.4,42.3-94.4,94.4,42.3,94.4,94.4,94.4ZM383.9,268.9c21.5,0,39,17.5,39,39s-17.5,39-39,39-39-17.5-39-39,17.5-39,39-39Z"/>
  <path class="st1" d="M640.7,402.3c52,0,94.4-42.3,94.4-94.4s-42.3-94.4-94.4-94.4-94.4,42.3-94.4,94.4,42.3,94.4,94.4,94.4ZM640.7,268.9c21.5,0,39,17.5,39,39s-17.5,39-39,39-39-17.5-39-39,17.5-39,39-39Z"/>
  <path class="st1" d="M889.8,402.3c52,0,94.4-42.3,94.4-94.4s-42.3-94.4-94.4-94.4-94.4,42.3-94.4,94.4,42.3,94.4,94.4,94.4ZM889.8,268.9c21.5,0,39,17.5,39,39s-17.5,39-39,39-39-17.5-39-39,17.5-39,39-39Z"/>
  <path class="st2" d="M3082.3,2192.9c-2.6,2.6-2.6,6.8,0,9.4l271.1,272,62.9-63.1-271.2-272c-1.6-1.6-3.4-1.9-4.6-1.9s-3,.3-4.6,1.9l-53.6,53.8Z"/>
  <path class="st2" d="M3448.9,2443.9l-62.9,63.1,46.2,46.3c3.2,3.2,6.1,3.2,9.3,0l53.6-53.8c2.6-2.6,2.6-6.8,0-9.4l-46.1-46.2Z"/>
  <path class="st1" d="M3177.8,2106.6c-19.9-20-54.7-19.9-74.6,0l-10.5,10.5-45-45.1c93.8-83.4,153.1-205,153.1-340.3,0-250.8-203.4-454.9-453.5-454.9s-386.1,143.2-438,337.1h-166.8v55.3h155.7c-2.8,20.4-4.4,41.3-4.4,62.5s2.6,54.9,7.4,81.3h-227v55.3h240.5c58,184.3,229.9,318.3,432.6,318.3s189.8-31.8,264.2-85.5l48.6,48.8-10.6,10.6c-20.5,20.6-20.5,54,0,74.5l349.8,351c10,10,23.2,15.5,37.3,15.5s27.3-5.5,37.3-15.5l53.6-53.8c20.5-20.6,20.5-54,0-74.5l-349.8-350.9ZM3495,2499.5l-53.6,53.8c-3.2,3.2-6.1,3.2-9.3,0l-46.2-46.3,62.9-63.1,46.1,46.2c2.6,2.6,2.6,6.8,0,9.4ZM3145.2,2139.1l271.2,272-62.9,63.1-271.1-272c-2.6-2.6-2.6-6.8,0-9.4l53.6-53.8c1.6-1.6,3.4-1.9,4.6-1.9s3,.3,4.6,1.9ZM3092.8,2149.7h0s0,0,0,0ZM2747.4,2131.2c-219.6,0-398.2-179.2-398.2-399.6s178.6-399.6,398.2-399.6,398.2,179.2,398.2,399.6-178.6,399.6-398.2,399.6Z"/>
  <path class="st4" d="M3092.8,2149.7h0s0,0,0,0Z"/>
  <path class="st3" d="M3145.5,1731.6c0-220.3-178.6-399.6-398.2-399.6s-398.2,179.2-398.2,399.6,178.6,399.6,398.2,399.6,398.2-179.2,398.2-399.6ZM2747.4,2080.2c-192.2,0-348.6-156.4-348.6-348.6s156.4-348.6,348.6-348.6,348.6,156.4,348.6,348.6-156.4,348.6-348.6,348.6Z"/>
  <path class="st2" d="M2747.4,2034.1c166.8,0,302.5-135.7,302.5-302.5s-135.7-302.5-302.5-302.5-302.5,135.7-302.5,302.5,135.7,302.5,302.5,302.5ZM2912.4,1561.4c12.7,8.5,16,25.7,7.4,38.4l-168.8,249c-7.9,7.8-18.3,11.8-28.7,11.8s-19.7-3.5-27.5-10.6l-103.3-93.8c-11.3-10.3-12.1-27.8-1.9-39.1,10.3-11.3,27.8-12.1,39.1-1.9l90.7,82.4,154.5-228.8c8.6-12.7,25.7-16,38.4-7.4Z"/>
  <path class="st1" d="M2747.4,1383c-192.2,0-348.6,156.4-348.6,348.6s156.4,348.6,348.6,348.6,348.6-156.4,348.6-348.6-156.4-348.6-348.6-348.6ZM2747.4,1429.1c166.8,0,302.5,135.7,302.5,302.5s-135.7,302.5-302.5,302.5-302.5-135.7-302.5-302.5,135.7-302.5,302.5-302.5Z"/>
  <path class="st5" d="M2628.8,1715.3c-11.3-10.2-28.8-9.4-39.1,1.9-10.3,11.3-9.4,28.8,1.9,39.1l103.3,93.8c7.8,7.1,17.7,10.6,27.5,10.6s20.8-3.9,28.7-11.8l168.8-249c8.6-12.7,5.2-29.9-7.4-38.4-12.7-8.5-29.9-5.2-38.4,7.4l-154.5,228.8-90.7-82.4Z"/>
  <path class="st1" d="M3686.5,2710.2V166.9c0-43.1-35.1-78.2-78.2-78.2H184c-43.1,0-78.2,35.1-78.2,78.2v2543.3c0,43.1,35.1,78.2,78.2,78.2h3424.2c43.1,0,78.2-35.1,78.2-78.2ZM184,144.1h3424.2c12.6,0,22.9,10.3,22.9,22.9v330.6H161.2V166.9c0-12.6,10.2-22.9,22.9-22.9ZM161.2,2710.2V552.9h3470v2157.3c0,12.6-10.3,22.9-22.9,22.9H184c-12.6,0-22.9-10.3-22.9-22.9Z"/>
</svg>