<?xml version="1.0" encoding="UTF-8"?>
<svg id="references" xmlns="http://www.w3.org/2000/svg" version="1.1" viewBox="0 0 4858.1 895.8">
  <!-- Generator: Adobe Illustrator 29.8.0, SVG Export Plug-In . SVG Version: 2.1.1 Build 160)  -->
  <defs>
    <style>
      .st0 {
        fill: #4c84ad;
      }
    </style>
  </defs>
  <path class="st0" d="M69.4,679.6v-49.5l42.4-5.9L311.8,107.4h66.4l196.5,516.8,42,5.9v49.5h-164.3v-49.5l43.2-7.5-37.7-105.3h-229.1l-38.9,105.3,43.2,7.5v49.5H69.4ZM252.9,452.4h181.6l-84.1-232.6-4.7-13h-2.4l-4.7,13-85.7,232.6Z"/>
  <path class="st0" d="M860.4,687.8c-46.1,0-82.1-14.8-108.1-44.4-25.9-29.6-38.9-75.7-38.9-138.3v-189.8l-48.7-11v-49.9h126.1v251.5c0,45.3,6.7,76.5,20,93.5,13.4,17,34.2,25.5,62.5,25.5s50.2-5.6,68.2-16.7c17.9-11.1,31.5-26.9,40.7-47.4v-245.6l-57-11v-49.9h134.4v364.7l48.7,11v49.5h-118.3l-5.1-62.9c-13.4,22.8-30.6,40.3-51.7,52.7-21.1,12.3-45.4,18.5-72.9,18.5Z"/>
  <path class="st0" d="M1329.7,687.8c-34.6,0-64.3-8.6-89-25.7-24.8-17.2-43.7-41.1-56.8-71.7-13.1-30.7-19.6-66.4-19.6-107.3v-8.3c0-45.6,6.5-85.5,19.6-119.9,13.1-34.3,32.1-61,57-80,24.9-19,54.8-28.5,89.6-28.5s47.4,4.7,66.6,14c19.3,9.3,35.7,22.7,49.3,40.3V127.4l-64.1-11v-49.9h141.5v552.5l64.1,11v49.5h-131.3l-6.3-50.7c-13.9,19.4-30.8,34.1-50.9,44-20,10-43.3,14.9-69.8,14.9ZM1349.3,624.9c23.1,0,42.4-5.2,58.2-15.7,15.7-10.5,28.7-25.3,38.9-44.4v-197.3c-10-17.8-22.9-32-38.9-42.4-16-10.5-35.1-15.7-57.4-15.7s-44.9,7-60.9,21c-16,14-27.9,33.4-35.8,58.2-7.9,24.8-11.8,53.5-11.8,86.3v8.3c0,42.7,8.8,77,26.3,103,17.5,25.9,44.7,38.9,81.3,38.9Z"/>
  <path class="st0" d="M1638.6,679.6v-49.5l64.1-11v-303.8l-64.1-11v-49.9h141.5v364.7l64.1,11v49.5h-205.5ZM1698.7,149.4v-82.9h81.3v82.9h-81.3Z"/>
  <path class="st0" d="M2047.7,686.2c-31.4,0-56.4-9.2-74.9-27.7-18.5-18.5-27.7-48-27.7-88.6v-258.2h-67.2v-57.4h67.2v-102.6h77.4v102.6h92.4v57.4h-92.4v258.2c0,20.4,4.1,35.5,12.2,45.2,8.1,9.7,19,14.5,32.6,14.5s19.4-.8,30.7-2.6c11.3-1.7,20-3.2,26.3-4.5l10.6,50.7c-11.3,3.4-25.1,6.4-41.5,9-16.4,2.6-31.6,3.9-45.8,3.9Z"/>
  <path class="st0" d="M2192.3,679.6v-49.5l64.1-11V168.3l-64.1-11v-49.9h167.4l184.3,434.2h2.4l178.4-434.2h172.5v49.9l-64.1,11v450.8l64.1,11v49.5h-205.5v-49.5l67.6-11V213.1l-2-.4-185.9,446.4h-51.5l-192.2-445.6-2,.4,2.8,239.3v165.8l69.2,11v49.5h-205.5Z"/>
  <path class="st0" d="M3055.7,851.3c-6,0-13.9-.7-23.6-2.2-9.7-1.4-17.2-2.8-22.4-4.1l7.9-60.9c4.5.5,10.6,1,18.5,1.4,7.9.4,13.2.6,16.1.6,16.5,0,29.9-6.3,40.3-18.9,10.3-12.6,20-29.7,28.9-51.5l18.5-44.8-150.5-360.4-45.6-6.3v-49.9h178.4v49.9l-51.5,7.9,82.9,212.6,20,55.4h2.4l98.2-268-54.2-7.9v-49.9h174.9v49.9l-44,6.3-167.4,434.3c-7.9,20.4-17.4,38.7-28.5,54.8-11.1,16.1-24.8,28.7-40.9,37.9-16.1,9.2-35.6,13.8-58.4,13.8Z"/>
  <path class="st0" d="M3640.8,687.8c-34.8,0-68.4-5.1-100.6-15.3-32.2-10.2-63-25.9-92.4-47.2v-122.2h60.1l13,90c17,10.5,35.5,18.6,55.4,24.4,19.9,5.8,41.4,8.6,64.5,8.6s48.4-4,66.6-12c18.2-8,32.2-19.1,41.9-33.2,9.7-14.1,14.5-30.7,14.5-49.5s-4.2-33-12.6-46.4c-8.4-13.4-22.2-25.1-41.5-35.2-19.3-10.1-45.5-18.9-78.8-26.5-39.3-9.2-72.5-21.4-99.6-36.7-27.1-15.3-47.7-33.9-61.7-55.8-14-21.9-21-47-21-75.3s7.9-56.6,23.8-80.2c15.8-23.6,37.9-42.2,66.2-55.8,28.3-13.6,61.3-20.4,99-20.4s75.5,6.1,106.3,18.3c30.8,12.2,56.1,26.9,76,44.2v114.4h-60.1l-13-81.7c-11.8-9.4-26.5-17.3-44-23.6-17.6-6.3-39.3-9.4-65.2-9.4s-41.4,3.9-58.2,11.6c-16.8,7.7-29.9,18.5-39.3,32.4-9.4,13.9-14.1,30.3-14.1,49.1s4.3,30.9,12.8,43.2c8.5,12.3,22.4,23.1,41.7,32.4,19.3,9.3,45,18,77.2,26.1,60.3,14.9,105.9,37,137,66.2,31,29.2,46.6,65.3,46.6,108.3s-8.3,57.8-24.8,81.5c-16.5,23.7-39.8,42.2-69.8,55.6-30,13.4-65.3,20-105.9,20Z"/>
  <path class="st0" d="M3902.9,679.6v-49.5l64.1-11v-303.8l-64.1-11v-49.9h141.5v364.7l64.1,11v49.5h-205.5ZM3963.1,149.4v-82.9h81.3v82.9h-81.3Z"/>
  <path class="st0" d="M4312,686.2c-31.4,0-56.4-9.2-74.9-27.7-18.5-18.5-27.7-48-27.7-88.6v-258.2h-67.2v-57.4h67.2v-102.6h77.4v102.6h92.4v57.4h-92.4v258.2c0,20.4,4.1,35.5,12.2,45.2,8.1,9.7,19,14.5,32.6,14.5s19.4-.8,30.7-2.6c11.3-1.7,20-3.2,26.3-4.5l10.6,50.7c-11.3,3.4-25.1,6.4-41.5,9-16.4,2.6-31.6,3.9-45.8,3.9Z"/>
  <path class="st0" d="M4642.5,687.8c-39.3,0-73.5-9-102.6-26.9-29.1-17.9-51.5-42.9-67.4-74.9-15.9-32-23.8-68.9-23.8-110.8v-17.3c0-40.3,8.3-76.4,25-108.3,16.6-31.8,38.8-57,66.4-75.5,27.6-18.5,57.8-27.7,90.6-27.7s70.3,7.9,96.1,23.6c25.8,15.7,45.3,37.8,58.4,66.2,13.1,28.4,19.6,61.9,19.6,100.4v48.3h-275.9l-1.2,2c.5,27.3,5.3,51.4,14.3,72.5,9,21.1,22.1,37.7,39.1,49.7,17,12.1,37.5,18.1,61.3,18.1s49.2-3.7,69-11.2c19.8-7.5,36.9-17.7,51.3-30.8l30.3,50.3c-15.2,14.7-35.3,27.1-60.3,37.1-25,10.1-55.1,15.1-90.2,15.1ZM4531.3,424.5h196.1v-10.2c0-20.4-3.6-38.7-10.8-54.8-7.2-16.1-17.9-28.8-32.2-38.1-14.3-9.3-32.2-14-53.6-14s-33,5-47.2,15.1c-14.1,10.1-25.8,23.8-35,41.1-9.2,17.3-15.2,36.9-18.1,58.9l.8,2Z"/>
</svg>